<svg width="15" height="15" viewBox="0 0 15 15" fill="none" xmlns="http://www.w3.org/2000/svg">
<path d="M6.16255 11.25C6.07686 11.2497 5.99213 11.2318 5.91364 11.1974C5.83515 11.163 5.76458 11.1128 5.7063 11.05L2.6688 7.81872C2.55526 7.69772 2.49443 7.53656 2.49971 7.37071C2.50498 7.20486 2.57592 7.0479 2.69693 6.93435C2.81793 6.8208 2.97909 6.75998 3.14494 6.76525C3.31079 6.77053 3.46776 6.84147 3.5813 6.96247L6.1563 9.70622L11.4126 3.95622C11.4659 3.8898 11.5323 3.83498 11.6076 3.79514C11.6828 3.75529 11.7655 3.73126 11.8504 3.72452C11.9353 3.71778 12.0207 3.72848 12.1014 3.75594C12.182 3.78341 12.2562 3.82708 12.3194 3.88425C12.3825 3.94143 12.4333 4.01092 12.4686 4.08844C12.5039 4.16596 12.523 4.24989 12.5247 4.33506C12.5265 4.42023 12.5107 4.50486 12.4785 4.58373C12.4463 4.66261 12.3984 4.73407 12.3376 4.79372L6.62505 11.0437C6.56733 11.1077 6.497 11.159 6.41849 11.1945C6.33997 11.23 6.25496 11.2489 6.1688 11.25H6.16255Z" fill="#F2F2F2"/>
</svg>
